# xmcd
#
# Track frame offsets:
#	150
#	15339
#	33722
#	47887
#	66416
#	80654
#	101938
#	117371
#	129975
#	144213
#
# Disc length: 2091 seconds
#
# Revision: 1
# Processed by: cddbd v1.4PL0 Copyright (c) Steve Scherf et al.
# Submitted via: dBpowerAMP V4.0
#
DISCID=8a08290a
DTITLE=The Second Time Around - Traditional Ties
DYEAR=1900
DGENRE=Bluegrass
TTITLE0=Blue Ridge Cabin Home
TTITLE1=Lonesome River
TTITLE2=Julie Anne
TTITLE3=There's A Light Guiding Me
TTITLE4=Georgia Rose
TTITLE5=Baby Blue
TTITLE6=Clinch Mountain Backstep
TTITLE7=Take Me In Your Lifeboat
TTITLE8=If That's The Way You Feel
TTITLE9=Take This Hammer
EXTD=
EXTT0=
EXTT1=
EXTT2=
EXTT3=
EXTT4=
EXTT5=
EXTT6=
EXTT7=
EXTT8=
EXTT9=
PLAYORDER=
